<?xml version="1.0" encoding="UTF-8" standalone="no"?>
<!-- Generator: Adobe Illustrator 22.0.0, SVG Export Plug-In . SVG Version: 6.00 Build 0)  -->

<svg
   xmlns:dc="http://purl.org/dc/elements/1.1/"
   xmlns:cc="http://creativecommons.org/ns#"
   xmlns:rdf="http://www.w3.org/1999/02/22-rdf-syntax-ns#"
   xmlns:svg="http://www.w3.org/2000/svg"
   xmlns="http://www.w3.org/2000/svg"
   xmlns:sodipodi="http://sodipodi.sourceforge.net/DTD/sodipodi-0.dtd"
   xmlns:inkscape="http://www.inkscape.org/namespaces/inkscape"
   version="1.1"
   x="0px"
   y="0px"
   viewBox="0 0 1920 1080"
   style="enable-background:new 0 0 1920 1080;"
   xml:space="preserve"
   id="svg1433"
   sodipodi:docname="logo2.svg"
   inkscape:version="0.92.4 5da689c313, 2019-01-14"><metadata
   id="metadata1439"><rdf:RDF><cc:Work
       rdf:about=""><dc:format>image/svg+xml</dc:format><dc:type
         rdf:resource="http://purl.org/dc/dcmitype/StillImage" /><dc:title /></cc:Work></rdf:RDF></metadata><defs
   id="defs1437" /><sodipodi:namedview
   pagecolor="#ffffff"
   bordercolor="#666666"
   borderopacity="1"
   objecttolerance="10"
   gridtolerance="10"
   guidetolerance="10"
   inkscape:pageopacity="0"
   inkscape:pageshadow="2"
   inkscape:window-width="1440"
   inkscape:window-height="850"
   id="namedview1435"
   showgrid="false"
   inkscape:zoom="0.48072917"
   inkscape:cx="984.16102"
   inkscape:cy="540"
   inkscape:window-x="0"
   inkscape:window-y="24"
   inkscape:window-maximized="1"
   inkscape:current-layer="Layer_1" />
<style
   type="text/css"
   id="style1147">
	.st0{fill:#00FF00;}
	.st1{opacity:0.5;}
	.st2{fill:#666666;}
	.st3{fill:#FFFFFF;}
	.st4{fill:#00E5FF;}
	.st5{fill:#F44336;}
</style>
<g
   id="Layer_1">
	
	
	
	
	
	<g
   id="g1215"
   transform="matrix(2.4417335,0,0,2.6887144,-2428.5511,-150.9511)">
		<path
   class="st4"
   d="M 1545.5,446.5 H 1224 c -105.2,0 -191.3,-86.1 -191.3,-191.3 v 0 C 1032.7,150 1118.8,63.9 1224,63.9 h 321.5 c 105.2,0 191.3,86.1 191.3,191.3 v 0 c 0,105.2 -86.1,191.3 -191.3,191.3 z"
   id="path1213"
   inkscape:connector-curvature="0"
   style="fill:#00e5ff" />
	</g>
	<g
   class="st1"
   id="g1219"
   transform="matrix(2.4417335,0,0,2.6887144,-2428.5511,-150.9511)"
   style="opacity:0.5">
		<circle
   class="st2"
   cx="1529"
   cy="258"
   r="170"
   id="circle1217"
   style="fill:#666666" />
	</g>
	<g
   id="g1223"
   transform="matrix(2.4417335,0,0,2.6887144,-2428.5511,-150.9511)">
		<circle
   class="st3"
   cx="1539"
   cy="254.3"
   r="170"
   id="circle1221"
   style="fill:#ffffff" />
	</g>
	<g
   id="g1231"
   transform="matrix(2.4417335,0,0,2.6887144,-2428.5511,-150.9511)">
		<path
   d="m 1504.9,281.5 v 25.9 h -74 V 189.7 h 73.1 v 25.9 h -46.2 v 19.5 h 42 v 25.6 h -42 v 20.9 h 47.1 z"
   id="path1225"
   inkscape:connector-curvature="0" />
		<path
   d="m 1570.1,307.4 -15.6,-22.2 -15.6,22.2 H 1510 l 30.1,-42.7 -29.1,-41.4 h 28.9 l 14.6,20.9 14.6,-20.9 h 28.9 l -29.1,41.4 30.1,42.7 z"
   id="path1227"
   inkscape:connector-curvature="0" />
		<path
   d="m 1640.2,247.5 v 29.8 c 0,7.2 6.2,7.9 17.3,7.2 v 22.9 c -33,3.4 -42.5,-6.6 -42.5,-30.1 v -29.8 h -13.5 v -24.2 h 13.5 v -16 l 25.2,-7.6 v 23.5 h 17.3 v 24.2 h -17.3 z"
   id="path1229"
   inkscape:connector-curvature="0" />
	</g>
	
	<g
   id="g1285"
   transform="matrix(2.4417335,0,0,2.6887144,-2428.5511,-150.9511)">
		<path
   d="m 1204.7,219.7 c 8.2,-0.1 14.7,1.6 17.3,2.5 2.2,0.8 3.5,1.5 4.8,2.5 5.3,4.2 7.1,11.9 5.5,12.9 -1.6,1 -5.1,-5.9 -14.6,-9.8 -1.8,-0.7 -7.7,-2.7 -14.8,-2.4 -6.6,0.3 -13.6,3.8 -21.2,10.7 -6.7,6.1 -12.9,16.4 -18.5,30.9 -0.8,2.2 1.3,4.3 3.5,3.5 18.3,-7.3 37.5,-12.3 57.5,-15.1 0,0 0.1,0 0.3,0 8.8,-0.8 10.4,-1.4 13.4,-1.1 1.9,0.2 5.5,0.9 5.5,1.8 0,1 -4.8,1.3 -18.9,5.5 -0.3,0.1 -0.3,0.1 -0.4,0.1 -23.4,5.2 -44.6,11.6 -63.5,19.1 -0.7,0.3 -1.3,0.8 -1.5,1.5 -2.2,6 -2.1,12.1 0.4,18.5 2.7,6.8 10,10.5 22,11.1 24.6,1.3 47.5,-31.3 48.9,-29.9 0.2,0.3 -0.4,1.3 0.1,1.7 0.7,0.6 3,-1.3 3.7,-1.8 3,-2.4 7.7,-5.9 14.8,-11.1 -4.3,6.6 -30.6,46.2 -65.6,46.6 -2.6,0 -22.9,-0.5 -28.6,-9.6 -3.7,-6.1 -5.3,-12.2 -4.8,-18.6 0.2,-1.9 -1.7,-3.3 -3.5,-2.7 -0.8,0.2 -1.6,0.1 -2.3,-0.3 -2.6,-1.7 -2.4,-3.9 0.6,-6.5 0.2,-0.2 0.4,-0.3 0.7,-0.4 l 4.5,-2.1 c 0.7,-0.3 1.2,-1 1.4,-1.7 4.2,-16 11.9,-29.2 23.1,-39.6 11.6,-10.7 21.6,-16.1 30.2,-16.2 z"
   id="path1277"
   inkscape:connector-curvature="0" />
		<path
   d="m 1358,143.5 c 3.9,-0.8 -14,17.6 -16.2,25.3 -11.7,23.1 -19,46.8 -22.6,70.8 9.6,10.6 9.4,16.1 0,16.6 -1.5,12.5 4.4,28.6 10.2,43.2 3.1,7.8 6.3,15.2 8.2,21.5 2.3,4.7 -4.5,-2 -9.2,-3.7 -8.3,-10 -20.4,-27.8 -20,-51.1 -3.2,7 -6.8,11.4 -9.5,14.2 -1.7,1.7 -3.1,2.8 -5.5,5.5 -3.3,3.8 -3.8,5.5 -6.5,8.1 -2.5,2.5 -4.7,3 -7.5,5.2 -7.2,5.7 -11.7,10.1 -21,15.4 -8,4.6 -13.5,2 -16.6,-7.8 -3,-9.8 -1.5,-23.2 4.6,-40.2 6.1,-17 16.2,-29.9 30.5,-38.7 14.2,-8.8 26.3,-6.7 36.1,6.3 4.6,-26 11.2,-49.3 19.7,-69.9 0.5,-3.1 21.4,-20 25.3,-20.7 z m -78.9,90.7 c -13.9,11.3 -22.6,24.9 -25.9,41 -3.4,16.1 -3.9,26.8 -1.7,32.1 2.2,5.4 12.4,-1.3 30.6,-20.1 18.2,-18.8 27.3,-33.5 27.3,-44.1 -6.3,-17.1 -16.4,-20.1 -30.3,-8.9 z"
   id="path1279"
   inkscape:connector-curvature="0" />
		<path
   d="M 1232.3,306.1"
   id="path1281"
   inkscape:connector-curvature="0" />
		<path
   d="M 1247.1,232.2"
   id="path1283"
   inkscape:connector-curvature="0" />
	</g>
	
	
	
	
	
	
</g>

</svg>